# xmcd
#
# Track frame offsets:
#	150
#	18335
#	32427
#	47372
#	62085
#	76022
#	88010
#	105555
#	118540
#	132640
#	144390
#	159410
#
# Disc length: 2334 seconds
#
# Revision: 1
# Processed by: cddbd v1.5.1PL0 Copyright (c) Steve Scherf et al.
# Submitted via: audiograbber 1.82.02
#
DISCID=8c091c0c
DTITLE=Lasse Stefanz - California blue
DYEAR=1995
DGENRE=Dance Hall
TTITLE0=California blue
TTITLE1=En slant i min jukebox
TTITLE2=Om jag säger dig
TTITLE3=Åren som gått
TTITLE4=Fredens duva
TTITLE5=Hon är min bästa vän
TTITLE6=De sista ljuva åren
TTITLE7=Säg till när du är klar
TTITLE8=Jag levde i en drömvärld
TTITLE9=Judy
TTITLE10=En vacker kärlekssång
TTITLE11=Brevet till min kära
EXTD=
EXTT0=
EXTT1=
EXTT2=
EXTT3=
EXTT4=
EXTT5=
EXTT6=
EXTT7=
EXTT8=
EXTT9=
EXTT10=
EXTT11=
PLAYORDER=
